# AST/ASF file generated using VICON BodyLanguage
# -----------------------------------------------
:version 1.10
:name VICON
:units
  mass 1.0
  length 0.45
  angle deg
:documentation
   .ast/.asf automatically generated from VICON data using
   VICON BodyBuilder and BodyLanguage model FoxedUp or BRILLIANT.MOD
:root
   order TX TY TZ RX RY RZ
   axis XYZ
   position 0 0 0  
   orientation 0 0 0 
:bonedata
  begin
     id 1 
     name lhipjoint
     direction 0.722297 -0.617336 0.311742 
     length 2.6635 
     axis 0 0 0  XYZ
  end
  begin
     id 2 
     name lfemur
     direction 0.34202 -0.939693 0  
     length 7.39349  
     axis 0 0 20  XYZ
    dof rx ry rz
    limits (-160.0 20.0)
           (-70.0 70.0)
           (-60.0 70.0)
  end
  begin
     id 3 
     name ltibia
     direction 0.34202 -0.939693 0   
     length 7.36294   
     axis 0 0 20   XYZ
    dof rx
    limits (-10.0 170.0)
  end
  begin
     id 4 
     name lfoot
     direction 0.104879 -0.288152 0.951824   
     length 2.16981   
     axis -90 7.62852e-016 20   XYZ
    dof rx rz
    limits (-45.0 90.0)
           (-70.0 20.0)
  end
  begin
     id 5 
     name ltoes
     direction 1.53586e-011 -4.21895e-011 1   
     length 1.08218   
     axis -90 7.62852e-016 20   XYZ
    dof rx
    limits (-90.0 20.0)
  end
  begin
     id 6 
     name rhipjoint
     direction -0.75102 -0.589393 0.297631   
     length 2.78977  
     axis 0 0 0  XYZ 
  end
  begin
     id 7 
     name rfemur
     direction -0.34202 -0.939693 0   
     length 7.46076   
     axis 0 0 -20   XYZ
    dof rx ry rz
    limits (-160.0 20.0)
           (-70.0 70.0)
           (-70.0 60.0)
  end
  begin
     id 8 
     name rtibia
     direction -0.34202 -0.939693 0   
     length 7.31726   
     axis 0 0 -20   XYZ
    dof rx
    limits (-10.0 170.0)
 end
 begin
     id 9 
     name rfoot
     direction -0.107991 -0.296704 0.948844   
     length 2.09388  
     axis -90 -7.62852e-016 -20   XYZ
    dof rx rz
    limits (-45.0 90.0)
           (-20.0 70.0)
  end
  begin
     id 10 
     name rtoes
     direction -1.53559e-011 -4.21911e-011 1   
     length 1.04433   
     axis -90 -7.62852e-016 -20   XYZ
    dof rx
    limits (-90.0 20.0)
  end
  begin
     id 11 
     name lowerback
     direction 0.0165164 0.98272 0.184358   
     length 1.71896   
     axis 0 0 0   XYZ
    dof rx ry rz
    limits (-20.0 45.0)
           (-30.0 30.0)
           (-30.0 30.0)
  end
  begin
     id 12 
     name upperback
     direction -0.00887249 0.992297 0.123566   
     length 1.71504   
     axis 0 0 0   XYZ
    dof rx ry rz
    limits (-20.0 45.0)
           (-30.0 30.0)
           (-30.0 30.0)
  end
  begin
     id 13 
     name thorax
     direction -0.0157026 0.998908 0.0440032   
     length 1.77022   
     axis 0 0 0   XYZ
    dof rx ry rz
    limits (-20.0 45.0)
           (-30.0 30.0)
           (-30.0 30.0)
  end
  begin
     id 14 
     name lowerneck
     direction -0.0238856 0.998137 0.0561411   
     length 1.89341   
     axis 0 0 0   XYZ
    dof rx ry rz
    limits (-20.0 45.0)
           (-30.0 30.0)
           (-30.0 30.0)
  end
  begin
     id 15 
     name upperneck
     direction 0.0276574 0.952253 -0.304056   
     length 1.86999   
     axis 0 0 0   XYZ
    dof rx ry rz
    limits (-20.0 45.0)
           (-30.0 30.0)
           (-30.0 30.0)
  end
  begin
     id 16
     name head
     direction 0.00800083 0.994258 -0.106712  
     length 1.91492  
     axis 0 0 0   XYZ
    dof rx ry rz
    limits (-20.0 45.0)
           (-30.0 30.0)
           (-30.0 30.0)
  end
  begin
     id 17 
     name lclavicle
     direction 0.97203 0.225407 0.06595  
     length 3.34889  
     axis 0 0 0   XYZ
    dof ry rz
    limits (-20.0 10.0)
           (0.0 20.0)
  end
  begin
     id 18 
     name lhumerus
     direction 1 -4.48973e-011 2.20267e-027   
     length 4.85645   
     axis 180 -30 -90   XYZ
    dof rx ry rz
    limits (-60.0 90.0)
           (-90.0 90.0)
           (-90.0 90.0)
  end
  begin
     id 19
     name lradius
     direction 1 -4.4897e-011 4.60472e-027   
     length 2.79874   
     axis 180 -30 -90   XYZ
    dof rx
    limits (-10.0 170.0)
  end
  begin
     id 20
     name lwrist
     direction 1 -4.48952e-011 1.14928e-026   
     length 1.39937   
     axis -6.29373e-015 90 90   XYZ
    dof ry
    limits (-180.0 0.0)
 end
  begin
     id 21 
     name lhand
     direction 1 -4.48967e-011 2.29886e-026   
     length 0.573398   
     axis -1.46689e-014 90 90   XYZ
    dof rx rz
    limits (-90.0 90.0)
           (-45.0 45.0)
  end
  begin
     id 22 
     name lfingers
     direction 1 -4.48955e-011 4.59726e-026   
     length 0.462289   
     axis -2.93383e-014 90 90   XYZ
    dof rx
    limits (0.0 90.0)
  end
  begin
     id 23
     name lthumb
     direction 0.707107 -6.34866e-011 0.707107   
     length 0.663757   
     axis -90 45 5.69224e-014   XYZ
    dof rx rz
    limits (-45.0 45.0)
           (-45.0 45.0)
  end
  begin
     id 24 
     name rclavicle
     direction -0.981571 0.157346 0.108443   
     length 3.35257  
     axis 0 0 0   XYZ 
    dof ry rz
    limits (-10.0 20.0)
           (-20.0 0.0)
  end
  begin
     id 25 
     name rhumerus
     direction -1 -4.48967e-011 8.58308e-029  
     length 4.67018   
     axis 180 30 90   XYZ
    dof rx ry rz
    limits (-90.0 60.0)
           (-90.0 90.0)
           (-90.0 90.0)
  end
  begin
     id 26 
     name rradius
     direction -1 -4.48958e-011 4.52548e-027   
     length 2.65534   
     axis 180 30 90   XYZ
    dof rx
    limits (-10.0 170.0)
  end
  begin
     id 27 
     name rwrist
     direction -1 -4.48977e-011 1.14952e-026   
     length 1.32767   
     axis -6.29373e-015 -90 -90   XYZ
    dof ry
    limits (-180.0 0.0)
  end
  begin
     id 28
     name rhand
     direction -1 -4.48924e-011 2.29804e-026   
     length 0.594069   
     axis -1.46689e-014 -90 -90   XYZ
    dof rx rz
    limits (-90.0 90.0)
           (-45.0 45.0)
  end
  begin
     id 29
     name rfingers
     direction -1 -4.48998e-011 4.59888e-026   
     length 0.478954   
     axis -2.93383e-014 -90 -90   XYZ
    dof rx
    limits (0.0 90.0)
  end
  begin
     id 30
     name rthumb
     direction -0.707107 -6.34933e-011 0.707107   
     length 0.687685   
     axis -90 -45 -5.69224e-014   XYZ
    dof rx rz
    limits (-45.0 45.0)
           (-45.0 45.0)
  end
:hierarchy
  begin
    root lhipjoint rhipjoint lowerback
    lhipjoint lfemur
    lfemur ltibia
    ltibia lfoot
    lfoot ltoes
    rhipjoint rfemur
    rfemur rtibia
    rtibia rfoot
    rfoot rtoes
    lowerback upperback
    upperback thorax
    thorax lowerneck lclavicle rclavicle
    lowerneck upperneck
    upperneck head
    lclavicle lhumerus
    lhumerus lradius
    lradius lwrist
    lwrist lhand lthumb
    lhand lfingers
    rclavicle rhumerus
    rhumerus rradius
    rradius rwrist
    rwrist rhand rthumb
    rhand rfingers
  end

#!OML:ASF E:\pregnant2\Project 1\Capture day 1\Session 1\pregnant2.ASF
:FULLY-SPECIFIED
:DEGREES
767
root 9.65069 11.0809 18.4338 27.2063 -6.93196 3.34268
lowerback -45.6504 4.74709 -1.68347
upperback -13.2014 7.05863 -6.12657
thorax 6.7791 3.0934 -2.72292
lowerneck -12.0366 -0.773118 -4.68989
upperneck 49.9836 4.17716 -6.22225
head 24.0569 -0.194086 -1.77426
rclavicle -1.11319e-014 2.70347e-014
rhumerus -42.4897 15.9926 -80.2201
rradius 71.929
rwrist 38.552
rhand 8.96929 -8.61549
rfingers 7.12502
rthumb 34.1481 -35.3663
lclavicle -1.11319e-014 2.70347e-014
lhumerus -33.1421 -23.2365 80.8175
lradius 67.3216
lwrist -27.8901
lhand 15.4765 27.4234
lfingers 7.12502
lthumb 40.3 52.5583
rfemur -133.048 25.9507 53.666
rtibia 76.9159
rfoot 9.3655 9.73152
rtoes 6.88774
lfemur -109.199 -7.22932 -24.5159
ltibia 83.1519
lfoot 1.42841 4.89227
ltoes -8.24006
768
root 9.65209 11.0809 18.4323 27.1928 -6.91581 3.36957
lowerback -45.6305 4.73026 -1.70022
upperback -13.2233 7.04275 -6.11991
thorax 6.74576 3.08717 -2.71614
lowerneck -12.0479 -0.795925 -4.73113
upperneck 49.9434 4.16443 -6.25428
head 24.0213 -0.210934 -1.78456
rclavicle 1.31198e-014 -1.51076e-014
rhumerus -42.5193 16.0496 -80.2382
rradius 71.9202
rwrist 38.5079
rhand 8.98718 -8.62707
rfingers 7.12502
rthumb 34.1651 -35.374
lclavicle 1.31198e-014 -1.51076e-014
lhumerus -33.184 -23.203 80.842
lradius 67.3301
lwrist -27.9206
lhand 15.5132 27.4086
lfingers 7.12502
lthumb 40.3345 52.5328
rfemur -133.051 26.0561 53.6772
rtibia 77.0534
rfoot 9.38705 9.75249
rtoes 7.27063
lfemur -109.186 -7.3102 -24.4394
ltibia 83.1254
lfoot 1.4757 4.96968
ltoes -8.28783
769
root 9.65332 11.0808 18.4302 27.1625 -6.90041 3.40173
lowerback -45.581 4.71081 -1.72187
upperback -13.249 7.02511 -6.11467
thorax 6.70024 3.08076 -2.7103
lowerneck -12.057 -0.815593 -4.76557
upperneck 49.9066 4.15656 -6.28935
head 23.9891 -0.224947 -1.79715
rclavicle -1.31198e-014 2.70347e-014
rhumerus -42.556 16.106 -80.2598
rradius 71.9188
rwrist 38.4677
rhand 9.0058 -8.63941
rfingers 7.12502
rthumb 34.1828 -35.3824
lclavicle -1.31198e-014 2.70347e-014
lhumerus -33.2325 -23.1693 80.8665
lradius 67.3407
lwrist -27.9651
lhand 15.5698 27.3841
lfingers 7.12502
lthumb 40.3877 52.492
rfemur -133.042 26.1415 53.6754
rtibia 77.1866
rfoot 9.44651 9.78356
rtoes 7.74266
lfemur -109.156 -7.39116 -24.3698
ltibia 83.0989
lfoot 1.52417 5.04763
ltoes -8.34437
770
root 9.6543 11.0803 18.4274 27.1089 -6.8822 3.4371
lowerback -45.4915 4.68807 -1.74749
upperback -13.2786 7.00426 -6.11006
thorax 6.63989 3.0737 -2.70597
lowerneck -12.0628 -0.831577 -4.79334
upperneck 49.8738 4.15377 -6.32582
head 23.9605 -0.235855 -1.81103
rclavicle 7.87187e-014 -2.38542e-015
rhumerus -42.5995 16.1564 -80.2834
rradius 71.9229
rwrist 38.4382
rhand 9.02022 -8.64854
rfingers 7.12502
rthumb 34.1965 -35.3885
lclavicle 7.87187e-014 -2.38542e-015
lhumerus -33.2852 -23.134 80.8911
lradius 67.3499
lwrist -28.0269
lhand 15.6353 27.3509
lfingers 7.12502
lthumb 40.4493 52.4398
rfemur -133.021 26.2032 53.6602
rtibia 77.3154
rfoot 9.54956 9.82148
rtoes 8.25081
lfemur -109.104 -7.47373 -24.3032
ltibia 83.0733
lfoot 1.5728 5.12574
ltoes -8.39599
771
root 9.65508 11.08 18.4247 27.0576 -6.86283 3.47523
lowerback -45.4069 4.66263 -1.77736
upperback -13.3072 6.98216 -6.10604
thorax 6.58139 3.06603 -2.70046
lowerneck -12.0689 -0.843768 -4.81524
upperneck 49.8453 4.15718 -6.36424
head 23.9372 -0.243541 -1.8262
rclavicle 4.57205e-014 -3.33958e-014
rhumerus -42.6432 16.201 -80.3073
rradius 71.9256
rwrist 38.4279
rhand 9.02531 -8.64827
rfingers 7.12502
rthumb 34.2013 -35.3871
lclavicle 4.57205e-014 -3.33958e-014
lhumerus -33.3386 -23.0959 80.9147
lradius 67.3555
lwrist -28.0976
lhand 15.703 27.32
lfingers 7.12502
lthumb 40.513 52.3892
rfemur -133.004 26.2563 53.6313
rtibia 77.439
rfoot 9.6822 9.87681
rtoes 8.66546
lfemur -109.054 -7.55932 -24.2333
ltibia 83.0451
lfoot 1.62382 5.20513
ltoes -8.44329
772
root 9.65569 11.0804 18.4228 27.0294 -6.84365 3.51467
lowerback -45.3632 4.6378 -1.8094
upperback -13.332 6.96312 -6.10479
thorax 6.53783 3.05893 -2.69401
lowerneck -12.0755 -0.853257 -4.83171
upperneck 49.8201 4.16433 -6.40332
head 23.9181 -0.24884 -1.8423
rclavicle 2.82274e-014 -3.97569e-014
rhumerus -42.6862 16.2346 -80.3314
rradius 71.9251
rwrist 38.4373
rhand 9.02246 -8.64006
rfingers 7.12502
rthumb 34.1986 -35.3795
lclavicle 2.82274e-014 -3.97569e-014
lhumerus -33.3903 -23.0598 80.9369
lradius 67.3567
lwrist -28.1684
lhand 15.7604 27.3016
lfingers 7.12502
lthumb 40.567 52.3541
rfemur -133.005 26.3131 53.5906
rtibia 77.5569
rfoot 9.83297 9.93175
rtoes 8.90598
lfemur -109.024 -7.64889 -24.1554
ltibia 83.0128
lfoot 1.67576 5.28752
ltoes -8.49352
773
root 9.65618 11.0813 18.4218 27.0312 -6.82422 3.55381
lowerback -45.3688 4.61181 -1.84373
upperback -13.3538 6.94482 -6.10313
thorax 6.50988 3.05131 -2.68397
lowerneck -12.0808 -0.859669 -4.84546
upperneck 49.7979 4.17673 -6.44348
head 23.9021 -0.251777 -1.85864
rclavicle -5.76476e-014 3.73715e-014
rhumerus -42.7278 16.262 -80.3549
rradius 71.9198
rwrist 38.4642
rhand 9.01375 -8.62595
rfingers 7.12502
rthumb 34.1903 -35.3673
lclavicle -5.76476e-014 3.73715e-014
lhumerus -33.4443 -23.0212 80.96
lradius 67.3548
lwrist -28.2349
lhand 15.8065 27.3055
lfingers 7.12502
lthumb 40.6103 52.3445
rfemur -133.026 26.3791 53.5428
rtibia 77.6713
rfoot 9.97622 9.9757
rtoes 8.91418
lfemur -109.02 -7.74332 -24.0648
ltibia 82.9755
lfoot 1.72815 5.37479
ltoes -8.53845
774
root 9.65658 11.0831 18.422 27.0671 -6.80532 3.5926
lowerback -45.4315 4.58588 -1.87942
upperback -13.3727 6.92861 -6.10153
thorax 6.49974 3.04361 -2.67049
lowerneck -12.083 -0.862768 -4.85838
upperneck 49.7792 4.19402 -6.48202
head 23.8886 -0.252531 -1.87337
rclavicle 8.0309e-014 -3.10104e-014
rhumerus -42.7691 16.2831 -80.3777
rradius 71.9095
rwrist 38.5029
rhand 9.00191 -8.60729
rfingers 7.12502
rthumb 34.1791 -35.3511
lclavicle 8.0309e-014 -3.10104e-014
lhumerus -33.502 -22.9815 80.9849
lradius 67.3495
lwrist -28.2941
lhand 15.8385 27.3228
lfingers 7.12502
lthumb 40.6403 52.3525
rfemur -133.07 26.4578 53.4914
rtibia 77.7854
rfoot 10.1038 9.98233
rtoes 8.75226
lfemur -109.045 -7.84288 -23.9619
ltibia 82.9337
lfoot 1.7797 5.46701
ltoes -8.5852
775
root 9.65687 11.0851 18.4226 27.1155 -6.78474 3.63147
lowerback -45.5163 4.55842 -1.9166
upperback -13.3893 6.91182 -6.09923
thorax 6.49727 3.03527 -2.65503
lowerneck -12.0853 -0.86412 -4.87073
upperneck 49.7625 4.21355 -6.51881
head 23.8772 -0.252152 -1.88686
rclavicle -2.14687e-014 3.10104e-014
rhumerus -42.8075 16.2986 -80.4003
rradius 71.8948
rwrist 38.5459
rhand 8.98857 -8.5902
rfingers 7.12502
rthumb 34.1664 -35.3369
lclavicle -2.14687e-014 3.10104e-014
lhumerus -33.5628 -22.9413 81.0111
lradius 67.3431
lwrist -28.3476
lhand 15.8606 27.3536
lfingers 7.12502
lthumb 40.6611 52.3768
rfemur -133.124 26.5389 53.441
rtibia 77.9055
rfoot 10.1981 9.92806
rtoes 8.39438
lfemur -109.082 -7.94838 -23.8485
ltibia 82.8895
lfoot 1.83213 5.56544
ltoes -8.64572
776
root 9.65712 11.0873 18.4232 27.1605 -6.76234 3.67058
lowerback -45.5966 4.52956 -1.95324
upperback -13.4062 6.89301 -6.09605
thorax 6.49321 3.02609 -2.63995
lowerneck -12.0867 -0.862529 -4.88069
upperneck 49.7485 4.23668 -6.55384
head 23.8683 -0.249754 -1.89923
rclavicle 1.98785e-014 9.54166e-015
rhumerus -42.8446 16.3113 -80.4236
rradius 71.8782
rwrist 38.587
rhand 8.97883 -8.57468
rfingers 7.12502
rthumb 34.1572 -35.3234
lclavicle 1.98785e-014 9.54166e-015
lhumerus -33.6279 -22.8998 81.0379
lradius 67.3356
lwrist -28.3974
lhand 15.8553 27.3663
lfingers 7.12502
lthumb 40.6561 52.391
rfemur -133.177 26.6166 53.3984
rtibia 78.0363
rfoot 10.2583 9.81977
rtoes 8.06773
lfemur -109.115 -8.05937 -23.7274
ltibia 82.8438
lfoot 1.88771 5.66966
ltoes -8.72339
777
root 9.65737 11.0897 18.424 27.2104 -6.74065 3.71138
lowerback -45.6881 4.49929 -1.99027
upperback -13.4213 6.87299 -6.09218
thorax 6.49366 3.01613 -2.62407
lowerneck -12.0898 -0.858174 -4.88912
upperneck 49.7355 4.26312 -6.58664
head 23.8613 -0.245595 -1.90997
rclavicle -1.47101e-014 2.14687e-014
rhumerus -42.8789 16.3253 -80.4484
rradius 71.8611
rwrist 38.6226
rhand 8.97623 -8.56377
rfingers 7.12502
rthumb 34.1547 -35.3131
lclavicle -1.47101e-014 2.14687e-014
lhumerus -33.6959 -22.8542 81.0631
lradius 67.3282
lwrist -28.4448
lhand 15.8519 27.3657
lfingers 7.12502
lthumb 40.6529 52.3914
rfemur -133.235 26.6974 53.3608
rtibia 78.1835
rfoot 10.2912 9.64622
rtoes 7.77088
lfemur -109.152 -8.17609 -23.5974
ltibia 82.7952
lfoot 1.94705 5.78329
ltoes -8.80914
